<?xml version="1.0" encoding="UTF-8" standalone="no"?>
<svg
   xmlns:dc="http://purl.org/dc/elements/1.1/"
   xmlns:cc="http://creativecommons.org/ns#"
   xmlns:rdf="http://www.w3.org/1999/02/22-rdf-syntax-ns#"
   xmlns:svg="http://www.w3.org/2000/svg"
   xmlns="http://www.w3.org/2000/svg"
   xmlns:sodipodi="http://sodipodi.sourceforge.net/DTD/sodipodi-0.dtd"
   xmlns:inkscape="http://www.inkscape.org/namespaces/inkscape"
   width="23.858601"
   height="23.858601"
   viewBox="0 0 23.858601 23.858601"
   fill="none"
   version="1.1"
   id="svg4"
   sodipodi:docname="search.svg"
   inkscape:version="1.0.1 (3bc2e813f5, 2020-09-07)">
  <metadata
     id="metadata10">
    <rdf:RDF>
      <cc:Work
         rdf:about="">
        <dc:format>image/svg+xml</dc:format>
        <dc:type
           rdf:resource="http://purl.org/dc/dcmitype/StillImage" />
        <dc:title />
      </cc:Work>
    </rdf:RDF>
  </metadata>
  <defs
     id="defs8" />
  <sodipodi:namedview
     pagecolor="#ffffff"
     bordercolor="#666666"
     borderopacity="1"
     objecttolerance="10"
     gridtolerance="10"
     guidetolerance="10"
     inkscape:pageopacity="0"
     inkscape:pageshadow="2"
     inkscape:window-width="1920"
     inkscape:window-height="1057"
     id="namedview6"
     showgrid="false"
     fit-margin-top="0"
     fit-margin-left="0"
     fit-margin-right="0"
     fit-margin-bottom="0"
     inkscape:zoom="37.083333"
     inkscape:cx="17.946067"
     inkscape:cy="12"
     inkscape:window-x="-8"
     inkscape:window-y="-8"
     inkscape:window-maximized="1"
     inkscape:current-layer="svg4"
     inkscape:document-rotation="0" />
  <path
     fill-rule="evenodd"
     clip-rule="evenodd"
     d="m 17.4174,9.70871 c 0,4.25739 -3.4513,7.70869 -7.70872,7.70869 C 5.4513,17.4174 2,13.9661 2,9.70871 2,5.4513 5.4513,2 9.70868,2 13.9661,2 17.4174,5.4513 17.4174,9.70871 Z m -1.587,7.53589 C 14.1601,18.6031 12.0295,19.4174 9.70868,19.4174 4.34672,19.4174 0,15.0707 0,9.70871 0,4.34674 4.34672,0 9.70868,0 c 5.36192,0 9.70872,4.34674 9.70872,9.70871 0,2.32079 -0.8143,4.45139 -2.1728,6.12169 l 6.614,6.614 -1.4142,1.4142 z"
     fill="#000000"
     id="path2"
     style="fill:#ffffff" />
</svg>
